<?xml version="1.0" encoding="utf-8"?>
<!-- Generator: Adobe Illustrator 26.0.1, SVG Export Plug-In . SVG Version: 6.00 Build 0)  -->
<svg version="1.1" id="Layer_1" xmlns="http://www.w3.org/2000/svg" xmlns:xlink="http://www.w3.org/1999/xlink" x="0px" y="0px"
	 viewBox="0 0 1000 1000" style="enable-background:new 0 0 1000 1000;" xml:space="preserve">
<style type="text/css">
	.st0{fill:url(#SVGID_1_);}
	.st1{fill:url(#SVGID_00000044860618421108207580000010833356644175462324_);}
	.st2{fill:url(#SVGID_00000180360669580263629690000003824529975990515118_);}
	.st3{fill:url(#SVGID_00000162321787132968368350000006907448975675040921_);}
	.st4{fill:#D4AF27;}
</style>
<g>
	<linearGradient id="SVGID_1_" gradientUnits="userSpaceOnUse" x1="1.8726" y1="500.4206" x2="996.2629" y2="500.4206">
		<stop  offset="0" style="stop-color:#FFE35F"/>
		<stop  offset="0" style="stop-color:#DE9F17"/>
		<stop  offset="0.3198" style="stop-color:#CF9A15"/>
		<stop  offset="0.6802" style="stop-color:#FFF68A"/>
		<stop  offset="1" style="stop-color:#FFCF45"/>
	</linearGradient>
	<path class="st0" d="M107.83,871.08c-1.09-3.81,0.04-6.03,1.95-8.05c4.43-4.7,8.89-9.37,13.2-14.18c2.55-2.84,4.61-5.91,5.71-9.8
		c1.45-5.1,3.85-9.94,6.36-16.19c0.62-4.01-0.8-8.91-3.81-13.41c-5.37-8.03-10.93-15.96-16.07-24.13
		c-4.4-6.99-8.35-14.28-12.49-21.44c-2-3.46-3.2-7.27-4.78-10.89c-2.24-5.13-5.44-9.9-8.71-14.48c-1.23-1.72-3.64-2.92-5.76-3.6
		c-4.81-1.55-9.76-2.67-14.68-3.88c-0.87-0.22-1.85-0.13-2.76-0.06c-3.66,0.28-7.35,0.43-10.98,0.96c-4.99,0.73-9.95,1.69-14.9,2.7
		c-1.6,0.33-3.11,1.14-4.89,1.82c-1.15-0.76-2.42-1.59-4.13-2.72c-1.84-4.5-3.85-9.32-5.79-14.17c-1.59-3.98-3.2-7.96-4.64-12
		c-1.54-4.33-2.82-8.75-4.34-13.09c-1.41-4.04-3.12-7.97-4.46-12.03c-0.81-2.44-1.22-5.03-1.73-7.56
		c-0.95-4.81-1.88-9.62-2.75-14.44c-1.28-7.08-2.3-14.22-3.83-21.24c-0.75-3.42-2.5-6.63-1.24-11.11
		c5.35-4.13,12.19-5.23,19.33-5.55c6.65-2.25,11.97-6.61,17.07-11.3c0.56-0.52,1.17-1,1.81-1.42c3.34-2.15,6.69-4.28,9.55-6.1
		c2.44-4.55,3.33-8.59,2.02-13.06c-0.46-1.58-0.24-3.36-0.34-5.05c-1.19-21.03-0.82-42.08-0.99-63.12c-0.04-5.2-0.8-10.39-1.3-16.36
		c-1.08-0.96-2.66-2.38-4.27-3.77c-0.46-0.4-1.14-0.63-1.46-1.11c-3.11-4.74-8.06-7.46-12.14-11.13c-2.4-2.16-4.74-4.41-7.37-6.25
		c-1.39-0.97-3.34-1.14-5.16-1.27c-4.33-2.54-8.65-5.08-12.87-7.56c-0.57-1.55-1.04-2.84-1.45-3.94c0-0.51-0.04-0.82,0.01-1.12
		c0.85-5.44,1.7-10.88,2.59-16.31c0.35-2.11,0.64-4.26,1.24-6.31c2.02-6.92,4.15-13.81,6.29-20.7c0.5-1.61,1.14-3.19,1.83-4.73
		c2.89-6.37,3.42-13.33,5.19-19.98c1.1-4.14,2.58-8.17,3.85-12.26c1-3.22,2-6.44,2.9-9.68c0.91-3.29,1.71-6.61,5.2-8.75
		c4.38-0.61,8.9-0.68,12.52,2.98c10.18,2.66,20.24,1.59,30.16-0.68c6.59-1.5,12.07-4.8,15.36-11.34
		c3.78-7.54,8.26-14.72,12.26-22.16c1.07-1.98,1.43-4.33,2.26-6.45c0.55-1.41,1.05-3.08,2.11-4c6.45-5.6,9.9-13.28,14.22-20.32
		c2.63-4.29,4.39-9.12,6.73-13.6c1.27-2.43,2.95-4.64,4.42-6.9c0.38-2.55-0.14-4.73-1.16-7.13c-1.35-3.19-1.56-6.85-2.4-10.27
		c-0.36-1.46-0.72-3.19-1.7-4.17c-3.17-3.16-4.7-7.16-6.25-11c-12.91-10.62-13.66-11.74-13.03-20.03c2.93-3.25,6.12-6.78,9.3-10.32
		c5.13-5.71,10.04-11.63,15.42-17.11c6.34-6.46,11.73-13.79,19.03-19.4c6.56-5.04,12.31-11.11,18.62-16.47
		c3.96-3.36,8.26-6.33,13.41-8.59c5.93,3.05,10.32,8.85,17.61,10.03c2.8,2.99,5.74,6.15,8.23,8.8c3.4,1.28,6.1,2.3,9.38,3.53
		c2.27,3.44,6.14,4.28,10.58,3.94c2.28-0.17,4.08-0.95,5.86-2.33c4.35-3.37,8.73-6.59,13.74-9.14c5.4-2.74,10.14-6.83,15.04-10.5
		c3.44-2.59,6.66-5.33,11.21-5.99c1.87-0.27,3.58-1.63,5.35-2.53c3.27-1.67,6.5-3.39,9.78-5.03c2.86-1.43,5.84-2.66,8.63-4.22
		c4.8-2.68,9.63-5.33,14.18-8.4c3.73-2.51,4.4-6.9,5.23-10.96c1.58-7.76,1.13-15.64,0.88-23.47c-0.12-3.62-1.51-7.19-2.11-10.81
		c-0.37-2.25-0.68-4.61-0.41-6.85c0.35-2.91,1.65-4.97,4.75-6.64c7.59-4.1,15.88-5.54,23.98-7.78c10.49-2.91,20.99-5.77,31.5-8.62
		c1.32-0.36,2.7-0.5,4.05-0.76c2.23-0.42,4.46-0.85,6.69-1.3c0.3-0.06,0.57-0.3,0.86-0.32c10.77-0.66,20.72-5.5,31.98-6.07
		c0.61,0.59,1.49,1.43,2.18,2.1c0.13,1.68-0.05,3,0.37,4.1c2.23,5.87,4.56,11.71,6.97,17.51c0.46,1.1,1.4,2,2.18,2.95
		c2.12,2.62,4.32,5.15,5.43,8.45c0.8,2.39,2.35,4.16,4.62,5.54c2.48,1.5,4.63,3.53,7.31,5.64c0.41,0.05,1.32,0.28,2.22,0.24
		c4.85-0.24,9.69-0.55,14.54-0.83c0.62-0.04,1.26-0.16,1.84-0.03c7.03,1.57,14.03-0.43,21.07-0.1c6.92,0.33,13.93-0.47,20.8,0.2
		c10.46,1.03,20.9,0.66,31.35,0.76c5.56,0.05,9.97-2.29,13.21-6.92c6.69-9.54,11.12-20.09,14.79-31.08
		c1.18-3.53,1.91-7.61,6.39-10.09c1.47,0.24,3.54,0.6,5.62,0.91c3.78,0.55,7.61,0.89,11.35,1.65c4.16,0.85,8.27,2,12.36,3.16
		c7.2,2.05,14.51,3.86,21.51,6.47c4.64,1.73,9.37,2.73,14.13,3.77c2.53,0.55,5.24,0.41,7.69,1.16c4.5,1.39,8.9,3.16,13.3,4.86
		c4.7,1.82,9.36,3.76,14.46,4.95c1.31,1.28,2.62,2.55,4.22,4.11c-0.48,1.9-0.84,3.64-1.36,5.34c-1.43,4.69-3.65,9.28-4.21,14.06
		c-0.7,6-1.78,12.11-0.29,18.26c1.04,4.3,1.44,8.75,2.08,12.85c1.88,3.7,5.43,4.82,8.49,6.42c5.41,2.83,11.09,5.15,16.54,7.91
		c5.43,2.76,10.73,5.8,16.07,8.74c3.89,2.14,7.84,4.21,11.63,6.52c5.72,3.49,11.33,7.17,17,10.77c3.87,2.45,7.77,4.85,11.6,7.35
		c4.05,2.64,8.46,2.7,12.87,1.56c3.72-0.97,7.11-2.72,10.13-5.3c2.05-1.75,4.59-3.08,7.11-4.08c5.32-2.12,9.03-6.29,13.13-9.92
		c3.25-2.88,7.05-4.23,11.11-5.04c2.58-0.52,4.8,0.52,6.71,2.34c5.46,5.2,10.93,10.38,16.45,15.51c2.25,2.09,4.72,3.94,6.91,6.08
		c1.75,1.71,3.17,3.74,4.83,5.55c1.14,1.24,2.4,2.38,3.66,3.51c1.82,1.65,3.79,3.14,5.49,4.9c4.16,4.32,7.93,9.04,12.33,13.08
		c6.44,5.9,10.97,13.24,16.08,20.13c1.56,2.11,2.05,4.79,1.39,8.02c-0.85,0.9-2.02,2.1-3.15,3.34c-3.43,3.73-6.87,7.46-10.26,11.23
		c-0.61,0.67-1.09,1.5-1.48,2.32c-3.09,6.51-6.22,13-9.16,19.58c-0.79,1.78-0.96,3.84-1.42,5.77c0.32,3.48,1.97,6.32,3.93,9.15
		c3.14,4.52,5.68,9.46,9.02,13.82c3.57,4.67,5.75,10.15,9.22,14.79c6.83,9.15,11.04,19.66,16.19,29.7c2.44,4.77,4.99,9.48,7.53,14.2
		c1.69,3.15,4.4,5.03,7.77,6.03c3.81,1.14,7.57,2.78,11.46,3.25c4.78,0.58,9.56,2.2,14.53,0.48c2.87-0.99,6-1.2,8.98-1.87
		c2.94-0.66,5.86-1.45,8.67-2.67c1.84,0,3.67,0,5.4,0c2.58,1.7,3.96,3.83,4.55,6.79c0.46,2.33,1.7,4.54,2.77,6.71
		c2.55,5.15,3.63,10.67,4.58,16.27c0.43,2.51,1.29,4.97,2.06,7.41c1.8,5.68,4.11,11.15,6.71,15.82c0.66,3.61,1.11,6.64,1.79,9.63
		c1.85,8.2,4.25,16.32,5.55,24.6c0.85,5.39,0.16,11.03,0.16,16.84c-3.26,3.64-7.33,5.52-12.6,6.06c-6.18,0.64-12.28,2.36-16.98,7.06
		c-2.47,2.48-4.96,4.82-8.12,6.64c-3.1,1.8-5.42,4.96-8.27,7.71c0.48,7.72-0.4,15.34,0.65,23.05c0.6,4.43,0.86,9.03,0.53,13.65
		c-0.42,5.78,0.3,11.64,0.53,17.47c0.06,1.54,0.39,3.13,0.1,4.6c-2.32,11.88-1.71,23.89-1.76,35.87c0,1.07,0,2.15,0,3.83
		c2.67,2.33,5.55,4.83,8.41,7.35c2.88,2.53,5.85,4.98,8.61,7.64c3.61,3.5,8.13,5.35,12.6,7.25c4.24,1.81,8.87,2.25,13.39,2.94
		c2.26,0.34,4.12,1.14,5.73,3.22c0.05,0.79,0.43,1.94,0.15,2.88c-2.22,7.33-2.95,14.98-4.79,22.4c-2.1,8.45-4.64,16.74-7.86,24.81
		c-2.13,5.33-3.24,10.84-3.9,16.51c-0.63,5.4-2.72,10.44-5.12,15.21c-1.68,3.34-2.65,6.83-3.9,10.27c-1.36,3.73-2.63,7.5-3.87,11.03
		c-1.69,0.84-2.91,1.45-4.3,2.15c-1.6-0.5-3.23-0.92-4.79-1.53c-8.19-3.2-16.54-4.11-25.29-2.61c-3.74,0.64-7.68,0.11-11.46,0.72
		c-2.04,0.48-4.08,0.97-6.13,1.42c-2.52,0.56-4.42,1.66-5.52,4.29c-2.83,6.76-6.49,13.1-10.16,19.44c-1.76,3.05-3.2,6.28-4.92,9.35
		c-1.12,1.99-2.49,3.85-3.76,5.75c-0.34,0.51-0.8,0.95-1.09,1.48c-4.34,7.94-8.45,16.01-13.07,23.78c-1.83,3.07-4.63,5.56-6.6,8.67
		c-2.02,3.2-4.43,6.17-6.24,8.66c-0.65,5.03-0.43,9.06,1.88,12.86c0.85,1.4,1,3.21,1.54,4.81c1.28,3.76,2.58,7.51,3.92,11.24
		c0.2,0.55,0.65,1.05,1.06,1.49c4.07,4.4,8.19,8.76,12.21,13.2c1.84,2.03,3.48,4.23,5.13,6.26c-0.89,4.65-4.03,7.15-6.89,9.9
		c-4.08,3.93-8.05,7.98-12.05,11.99c-0.98,0.98-1.84,2.07-2.83,3.04c-6.14,6.01-12.37,11.92-18.43,18
		c-10.55,10.59-21,21.27-31.47,31.95c-1.18,1.21-2.15,2.63-2.96,3.62c-1.98,0-3.19,0-5,0c-6.11-7.73-14.61-13.32-22.59-19.47
		c-3.71-1.74-7.51-3.37-11.16-5.28c-3.83-2-7.73-3.68-11.93-3.91c-4.24-3.63-8.97-11.5-10.22-16.9c-2.81-3.39-5.37-6.96-6.34-11.46
		c-0.21-0.99-1.03-1.86-1.6-2.77c-3.4-5.46-6.58-10.97-9.13-16.95c-2.5-5.88-6.21-11.24-9.35-16.85c-1.1-1.97-2.06-4.01-3.13-5.99
		c-4.41-8.21-9.21-16.24-13.16-24.67c-4.35-9.29-9.91-17.89-14.46-27.05c-0.96-1.92-1.84-3.9-2.51-5.93
		c-0.85-2.59-2.64-4.41-5.07-4.95c-5.82-1.31-10.96-4.8-17.04-5.22c-0.73-0.05-1.43-0.53-2.14-0.82
		c-7.39-2.94-14.87-5.54-22.59-7.54c-5.73-1.49-11.23-3.85-16.84-5.8c-1.56-0.54-3.12-1.14-4.72-1.52
		c-3.85-0.92-7.57-2.14-11.19-3.79c-2.06-0.94-4.37-1.31-6.51-2.08c-10.09-3.62-20.27-6.92-30.56-9.96
		c-6.76-2-13.33-4.61-20.01-6.86c-3.6-1.21-7.29-2.16-10.88-3.38c-3.17-1.07-6.57-1.83-8.81-5.08c0.48-0.72,0.91-1.51,1.47-2.17
		c0.49-0.57,1.14-1.01,1.93-1.69c1.39,0.09,2.9,0.22,4.42,0.29c1.96,0.09,3.92,0.14,5.88,0.17c1.94,0.04,3.89,0.03,5.83,0.05
		c13.24,0.13,26.49,0.22,39.73,0.42c4.76,0.07,9.5,0.47,14.26,0.55c1.97,0.03,3.99-0.72,5.93-0.51c14.44,1.54,28.92,0.56,43.37,0.91
		c3.36,0.08,6.7,0.71,10.06,0.83c2.12,0.07,4.25-0.33,6.42-0.53c2.98,0.19,6.03,0.54,9.08,0.55c14.8,0.06,29.6-0.03,44.4,0.09
		c4.28,0.04,8.57,0.5,12.83,0.98c2.79,0.32,4.78,2.11,6.1,4.5c2.88,5.22,5.66,10.49,8.48,15.74c0.51,0.95,0.81,2.05,1.48,2.85
		c3.97,4.73,6.11,10.5,9.1,15.78c0.91,1.61,1.47,3.45,2.54,4.92c4.44,6.09,7.55,12.92,11.19,19.46c1.16,2.09,2.92,3.85,4.54,5.93
		c2.8-2.48,5.3-4.65,6.95-7.74c0.92-1.73,2.52-3.08,3.63-4.73c3.86-5.71,7.57-11.52,11.46-17.21c2.98-4.37,6.64-8.37,9.04-13.02
		c1.9-3.68,4.33-6.97,6.26-10.57c4.54-8.49,8.83-17.11,13.21-25.68c0.42-0.81,0.79-1.65,1.12-2.5c2.51-6.4,5.61-12.52,8.66-18.67
		c0.61-1.23,0.84-2.63,1.33-3.93c0.8-2.13,1.66-4.24,2.52-6.35c0.29-0.71,0.72-1.37,0.96-2.1c2.71-8.1,5.48-16.17,8.04-24.32
		c1.7-5.4,2.99-10.93,4.61-16.35c2.83-9.52,4.81-19.24,6.79-28.94c1.31-6.44,1.82-13.04,3.06-19.5c2.72-14.19,1.69-28.52,1.71-42.8
		c0.01-4.86-1.05-9.72-1.58-14.59c-0.13-1.22-0.19-2.46-0.15-3.69c0.21-6.63-0.62-13.15-1.68-19.68c-0.71-4.37-0.76-8.85-1.13-13.28
		c-0.11-1.37-0.25-2.75-0.49-4.1c-1.36-7.68-2.72-15.36-4.17-23.02c-0.54-2.86-1.36-5.66-1.98-8.5c-1.3-5.96-2.33-11.99-3.89-17.88
		c-1.32-4.97-3.27-9.78-4.87-14.68c-0.52-1.58-0.82-3.24-1.24-4.85c-0.38-1.48-0.72-2.98-1.21-4.43c-0.66-1.98-1.44-3.93-1.98-5.96
		c-2.01-5.25-3.91-10.55-6.06-15.74c-2.44-5.91-5.07-11.74-7.65-17.58c-1.24-2.81-2.46-5.64-3.87-8.36
		c-2.75-5.31-5.53-10.62-8.48-15.82c-3.7-6.5-7.49-12.96-11.43-19.32c-4.83-7.82-10.47-15.07-16.14-22.3
		c-2.51-3.21-4.72-6.66-7.07-10c-0.52-0.75-0.93-1.6-1.56-2.25c-11.04-11.39-21.99-22.87-33.21-34.08
		c-4.88-4.87-10.21-9.31-15.55-13.68c-3.42-2.8-7.23-5.13-10.86-7.67c-0.25-0.18-0.56-0.29-0.77-0.51
		c-5.82-6.04-13.49-9.49-20.22-14.25c-6.97-4.93-14.72-8.75-22.01-13.25c-6.02-3.71-12.27-6.79-18.95-9.2
		c-4.14-1.5-7.83-4.19-11.84-6.11c-3.72-1.79-7.47-3.7-11.42-4.78c-6.21-1.71-11.79-4.87-17.81-6.99c-0.58-0.2-1.17-0.39-1.76-0.56
		c-4.24-1.22-8.51-2.38-12.73-3.67c-2.49-0.76-4.87-1.85-7.36-2.58c-2.04-0.6-4.19-0.83-6.25-1.36c-4.61-1.17-9.14-2.68-13.8-3.6
		c-9.6-1.9-19.26-3.54-28.91-5.23c-5.27-0.93-10.55-1.84-15.85-2.57c-3.79-0.52-7.61-0.86-11.44-1.06
		c-7.82-0.4-15.65-0.62-23.47-0.99c-2.13-0.1-4.25-0.5-6.38-0.69c-1.38-0.12-2.77-0.21-4.15-0.13c-3.82,0.23-7.63,0.63-11.45,0.82
		c-7.67,0.37-15.36,0.41-23.01,1.04c-6.39,0.52-12.73,1.66-19.09,2.56c-6.82,0.97-13.66,1.78-20.43,3.03
		c-5.26,0.97-10.44,2.45-15.63,3.78c-3.7,0.95-7.42,1.89-11.02,3.13c-2.88,0.99-5.61,2.43-9.18,4.01
		c-5.58-0.25-11.39,2.17-17.2,4.53c-9.22,3.75-18.45,7.47-27.64,11.29c-2.68,1.12-5.3,2.41-7.84,3.82c-8.2,4.52-16.42,9-24.49,13.74
		c-7,4.11-13.83,8.52-20.67,12.9c-2.06,1.32-3.93,2.93-5.88,4.42c-5.12,3.91-10.31,7.72-15.32,11.77
		c-4.89,3.96-9.59,8.15-14.35,12.26c-4.64,4.01-9.26,8.06-13.87,12.11c-1.04,0.92-2.01,1.91-2.98,2.9
		c-3.97,4.01-8.04,7.94-11.87,12.08c-3.12,3.38-5.97,7-8.91,10.54c-4.41,5.31-8.97,10.51-13.15,15.99
		c-5.31,6.95-10.3,14.15-15.45,21.23c-6.61,9.08-11.88,18.95-17.42,28.68c-3.58,6.29-6.94,12.65-10.17,19.11
		c-5.97,11.96-11.13,24.27-15.37,36.96c-3,9-5.68,18.1-8.49,27.15c-2.32,7.5-3.83,15.12-5.55,22.7c-1.59,6.99-2.28,14.19-3.34,21.31
		c-0.36,2.42-0.56,4.87-0.98,7.28c-1.58,9.12-1.96,18.3-1.84,27.53c0.02,1.97-0.76,3.95-0.66,5.91c0.26,5.48,0.34,10.93,0,16.41
		c-0.16,2.56,0.29,5.2,0.75,7.75c1.36,7.55,0.16,15.32,2.42,22.83c1.08,3.6,0.72,7.61,1.29,11.39c0.92,6.05,2.1,12.07,3.1,18.11
		c0.57,3.47,1,6.96,1.49,10.45c0.08,0.61,0.03,1.25,0.18,1.84c1.2,4.9,2.48,9.78,3.63,14.69c0.42,1.78,0.5,3.63,0.83,5.43
		c0.67,3.61,1.44,7.2,2.1,10.81c0.88,4.82,1.67,9.65,2.57,14.46c0.19,1.04,0.65,2.04,1.03,3.04c2.11,5.58,4.09,11.23,6.4,16.72
		c2.24,5.33,4.69,10.58,7.31,15.73c4.03,7.93,8.17,15.81,12.5,23.58c2.51,4.51,5.51,8.75,8.26,13.13c1.23,1.95,2.3,4.01,3.57,5.93
		c5.16,7.79,10.32,15.57,15.57,23.29c4.05,5.95,8.13,11.89,12.4,17.68c1.6,2.17,3.8,3.89,5.93,6.02c0.91-1.08,1.59-1.68,2.02-2.44
		c2.01-3.58,3.95-7.21,5.91-10.82c0.29-0.54,0.53-1.12,0.82-1.66c4.41-8.22,8.89-16.4,13.23-24.66c3.57-6.79,6.8-13.77,10.56-20.46
		c1.93-3.42,4.69-6.37,6.71-9.05c5.9-1.37,11.01-2.33,16.22-0.68c0.56,0.18,1.24,0.15,1.84,0.04c7.48-1.29,14.94-0.8,22.48-0.4
		c7.72,0.41,15.49-0.53,23.24-0.42c7.95,0.12,15.9-0.28,23.85-0.04c4.28,0.13,8.56,0.66,12.84,0.83c1.66,0.07,3.33-0.45,5.01-0.51
		c2.28-0.08,4.57,0.03,6.85,0.04c3.19,0.01,6.39,0.05,9.58-0.01c1.53-0.03,3.05-0.36,4.58-0.37c9.25-0.04,18.5-0.09,27.75,0.02
		c3.2,0.04,6.4,0.59,9.61,0.75c1.67,0.08,3.35-0.24,5.03-0.3c2.9-0.11,5.87-0.58,8.69-0.14c3.86,0.61,7.57,0.74,11.41-0.03
		c2.23-0.45,4.68-0.67,6.89-0.23c7.19,1.43,14.43,0.53,21.64,0.84c0.46,0.02,0.92,0.08,1.4,0.13c1.61,0.78,2.85,1.8,2.56,4.15
		c-3.57,2.21-7.61,3.59-11.65,4.89c-4.63,1.49-9.35,2.65-13.9,4.45c-4.1,1.62-8.44,2.6-12.64,3.96c-6.26,2.03-12.37,4.71-18.77,6.1
		c-13.38,2.91-25.81,8.81-39.16,11.75c-4.61,1.01-8.98,3.11-13.48,4.63c-2.45,0.83-4.95,1.55-7.44,2.26
		c-6.33,1.83-12.69,3.53-18.98,5.47c-6.13,1.88-12.18,4.03-18.29,5.98c-3.51,1.12-7.06,2.1-11.04,3.27
		c-2.99,1.74-4.45,5.27-6.23,8.44c-4.38,7.76-8.54,15.63-12.73,23.49c-1.44,2.7-2.63,5.53-4.08,8.23
		c-5.05,9.44-10.17,18.84-15.22,28.28c-2.9,5.41-5.7,10.87-8.59,16.29c-3.53,6.64-7.2,13.21-10.63,19.9
		c-3,5.84-5.96,11.72-8.58,17.74c-1.8,4.13-4.57,6.89-8.77,8.24c-5.99,1.93-12.04,3.67-18,5.67c-2.75,0.92-5.5,2-7.99,3.45
		c-5.18,3.03-10.06,6.46-14.1,11.04c-1.6,1.81-3.78,3.12-5.88,4.8c-1.67,0-3.49,0-5.41,0c-0.79-0.7-1.59-1.41-2.38-2.13
		c-3.3-2.99-6.65-5.93-9.87-9.01c-3.32-3.17-6.51-6.46-9.76-9.7c-4.69-4.68-9.33-9.43-14.08-14.04
		c-7.48-7.26-14.99-14.48-22.57-21.64C117.91,880.22,112.54,875.4,107.83,871.08z"/>
	
		<linearGradient id="SVGID_00000008863448678711969510000010567601915085417391_" gradientUnits="userSpaceOnUse" x1="243.1893" y1="461.2743" x2="710.3687" y2="461.2743">
		<stop  offset="0" style="stop-color:#FFE35F"/>
		<stop  offset="0" style="stop-color:#DE9F17"/>
		<stop  offset="0.3198" style="stop-color:#CF9A15"/>
		<stop  offset="0.6802" style="stop-color:#FFF68A"/>
		<stop  offset="1" style="stop-color:#FFCF45"/>
	</linearGradient>
	<path style="fill:url(#SVGID_00000008863448678711969510000010567601915085417391_);" d="M331.05,516.79
		c-3.39,1.62-6.31,2.63-8.8,4.29c-3.35,2.23-7.13,2.74-10.87,3.47c-4.05,0.79-8.2,1.13-12.22,2.04c-2.49,0.56-4.82,1.82-7.22,2.78
		c-0.29,0.11-0.53,0.34-0.83,0.41c-9.67,2.47-14.06,10.5-19.26,17.87c-5.82,8.24-9.41,17.49-13.32,26.64
		c-0.94,2.21-2.6,4.12-4.03,6.1c-0.9,1.24-2.12,2.25-2.94,3.53c-1.26,1.94-2.94,3.08-5.13,3.49c-3.67-2.3-4.29-4.93-1.58-8.23
		c1.55-1.88,3.63-3.33,4.93-5.44c2.34-5.5,4.68-10.99,7.26-17.03c0.52-0.57,1.46-1.59,2.39-2.61c-0.12-0.07-0.24-0.14-0.36-0.21
		c2.04-4.05,4.07-8.11,6.03-12.01c3.86-4.26,7.65-8.45,11.45-12.63c1.03-1.13,1.87-2.78,3.15-3.27c5.68-2.15,10.64-5.96,16.82-7.02
		c5.86-1,11.68-2.33,17.46-3.72c1.81-0.44,4.11-0.38,5.11-2.96c-2.15-4.92-4.96-10.06,0.12-15.38c-1.71-6.61,2.71-11.15,6.07-16.26
		c-1.95-2.2-3.86-4.36-5.68-6.41c0.23-2,0.42-3.66,0.62-5.35c2.25-3.5,4.35-7.15,9.16-8.17c6.29,1.36,9.67,6.2,13.01,11.12
		c-0.73,1.91-1.33,3.48-2.14,5.59c2.57,3.23,5.3,6.65,8.44,10.6c2.08-2.33,3.87-4.33,5.66-6.34c3.91-1.3,7.83-2.61,12.27-4.09
		c0.63-0.78,1.74-1.88,2.53-3.17c5.42-8.92,10.97-17.77,16.11-26.84c7.71-13.59,16.16-26.73,24.25-40.09
		c6.76-11.15,13.11-22.54,19.77-33.75c4.16-7,8.63-13.82,12.87-20.78c4.6-7.55,8.79-15.36,13.7-22.69
		c5.96-8.92,10.42-18.8,17.47-27.01c0.49-0.57,0.85-1.27,1.17-1.95c3.3-7.05,7.19-13.77,10.91-20.59c1.61-2.95,2.94-6.05,4.5-9.03
		c0.98-1.87,2.14-3.65,3.39-5.36c1.2-3.15,1.3-7.21,6.14-7.22c2.13,1.13,3.32,2.71,4.12,4.88c0.73,1.98,2.16,3.68,3.19,5.56
		c1.84,3.35,3.65,6.73,5.41,10.13c4.08,7.89,8.1,15.81,12.2,23.68c2.81,5.4,5.83,10.69,8.57,16.13c2.96,5.87,5.56,11.92,8.57,17.76
		c3.23,6.26,6.84,12.32,10.12,18.56c4.76,9.02,9.35,18.13,14.06,27.18c2.41,4.62,4.93,9.19,7.39,13.79
		c1.08,2.02,2.15,4.05,3.19,6.09c4.4,8.56,8.31,17.43,13.32,25.62c5.84,9.54,9.79,20.06,16.11,29.34c2.83,4.15,4.63,9,6.9,13.54
		c5.14,10.28,10.52,20.43,16.01,30.53c3.66,6.72,7.48,13.36,10.74,20.34c4.41,9.43,9.65,18.48,14.58,27.67
		c1.51,2.82,3.68,5.31,4.18,8.62c0.07,0.44,0.33,0.87,0.58,1.25c4.87,7.47,8.35,15.66,12.38,23.57c2.49,4.88,5.51,9.48,8.18,14.27
		c1.25,2.24,2.39,4.56,3.3,6.95c2.73,7.2,7.97,13.1,10.44,20.47c1,2.98,3.02,5.62,4.59,8.39c2.49,4.38,5.1,8.69,7.46,13.13
		c1.78,3.35,3.26,6.87,5.26,11.14c0.21,3.04,0.21,3.04-2.56,5.67c-6.75-0.35-13.82,0.85-20.85-0.72c-1.47-0.33-3.07-0.14-4.61-0.04
		c-3.36,0.21-6.71,0.73-10.07,0.76c-12.49,0.09-24.97,0.04-37.46,0.04c-1.69,0-3.37,0-5.5,0c-1.51-2.03-3.3-3.95-4.54-6.18
		c-3.72-6.7-7.23-13.51-10.79-20.29c-3.28-6.24-6.53-12.49-9.81-18.73c-3.28-6.23-6.58-12.44-9.9-18.65
		c-3.88-7.28-7.89-14.49-11.66-21.83c-3.44-6.69-6.52-13.57-9.99-20.25c-2.38-4.6-5.16-8.99-7.74-13.48
		c-0.61-1.07-1.17-2.17-1.72-3.27c-4.49-8.94-8.83-17.96-13.5-26.8c-3.08-5.83-6.62-11.41-9.95-17.1c-0.39-0.66-0.96-1.27-1.15-1.98
		c-1.89-7.41-6.71-13.37-9.87-20.15c-2.33-5-5.14-9.77-7.74-14.65c-4.47-8.41-9-16.79-13.39-25.24c-2.66-5.14-5.1-10.39-7.52-15.34
		c-2.2-0.35-2.46,1.06-2.99,2.1c-2.71,5.31-5.38,10.64-8.12,15.94c-0.92,1.77-2.03,3.44-2.98,5.2c-2.61,4.87-5.23,9.73-7.76,14.64
		c-2.67,5.18-5.16,10.44-7.86,15.6c-2.83,5.41-5.84,10.73-8.72,16.12c-5.72,10.69-11.47,21.37-17.08,32.12
		c-2.89,5.55-5.49,11.26-8.23,16.9c-0.13,0.27-0.31,0.53-0.5,0.77c-5.26,6.69-7.85,14.85-12.1,22.11
		c-2.53,4.32-4.19,9.15-6.51,13.61c-2.4,4.61-5.19,9.01-7.67,13.58c-2.7,4.97-5.24,10.03-7.87,15.05
		c-4.48,8.57-8.97,17.13-13.46,25.7c-2.84,5.41-5.67,10.82-8.55,16.21c-3.04,5.69-6.14,11.34-8.75,16.15
		c-3.17,2.34-5.64,2.4-8.34,1.73c-1.61-0.4-3.35-0.43-5.02-0.35c-3.21,0.16-6.4,0.73-9.61,0.74c-17.88,0.08-35.76,0.03-53.65,0.03
		c-1.54,0-3.08,0-4.42,0c-3.41-2.57-3.85-3.72-2.29-7.01c1.83-3.87,3.81-7.67,5.84-11.44c3.2-5.94,6.54-11.81,9.74-17.74
		c2.24-4.15,4.38-8.35,6.53-12.55c2.66-5.18,5.29-10.38,7.91-15.58c2.21-4.37,4.29-8.8,6.6-13.12c2.1-3.9,4.55-7.61,6.62-11.53
		c2.36-4.46,4.61-9,6.58-13.64c0.61-1.45,0.56-3.45,0.14-5.01c-2.03-7.55-1.88-15.24-1.68-22.91
		C335.96,527.18,333.22,522.58,331.05,516.79z M406.88,426.73c-0.49,0.69-1.04,1.34-1.46,2.06c-2.08,3.55-4.08,7.15-6.2,10.68
		c-7.26,12.05-14.52,24.1-21.86,36.1c-1.91,3.12-3.69,6.49-6.29,8.95c-2.28,2.16-4.21,4.34-5.73,7.05c1.01,2.82,2.21,5.31,4.86,6.97
		c2.07-3.55,4.03-6.83,5.89-10.16c1.94-3.46,3.84-6.95,5.65-10.48c1.74-3.4,3.28-6.89,4.99-10.3c1.7-3.4,3.48-6.76,5.25-10.12
		c1.78-3.38,3.6-6.74,5.42-10.1c1.88-3.48,4.17-6.79,5.56-10.45C404.26,433.54,407.57,431.02,406.88,426.73z M359.05,505.09
		c-4.38,4.27-8.37,8.14-12.42,12.09c3.42,6.74,1.44,13.76,2.4,20.92c0.8-1.01,1.37-1.55,1.72-2.2c3.4-6.33,6.8-12.67,10.14-19.03
		c1.21-2.31,1.09-4.76,0.23-7.16C360.6,508.28,359.88,506.93,359.05,505.09z"/>
</g>
<g>
	<path class="st4" d="M311.24,867.53l6.36,11.41l-10.3,18.61l-0.54,0.98h-12.67l1.56-2.81L311.24,867.53z M349.15,898.53h-12.67
		l-0.54-0.98l-9.49-17.14l-4.65-8.39l-0.19-0.33l-6.36-11.41l0.02-0.04l0.51-0.92l4.14-7.47l0.49-1.05h2.43l0.47,1.05l4.14,7.48
		l20.15,36.4L349.15,898.53z"/>
	<path class="st4" d="M391.57,876.96c1.24,2.17,1.9,4.64,1.9,7.15c0,2.51-0.66,4.99-1.9,7.16c-2.57,4.48-7.37,7.27-12.53,7.27
		h-14.31c-6.34,0-11.67-4.28-13.28-10.1c-0.32-1.17-0.5-2.4-0.5-3.67h9.89c0,1.7,1.1,3.15,2.62,3.67h15.57
		c2.38,0,4.32-1.94,4.32-4.32s-1.94-4.32-4.32-4.32h-13.66c-4.04,0-7.86-1.71-10.56-4.6c-0.75-0.8-1.41-1.69-1.97-2.67
		c-1.24-2.17-1.89-4.64-1.89-7.15c0-2.51,0.65-4.99,1.89-7.16c2.57-4.48,7.37-7.27,12.53-7.27h14.56c6.34,0,11.67,4.28,13.28,10.1
		c0.32,1.17,0.49,2.4,0.49,3.67h-9.89c0-1.7-1.1-3.15-2.62-3.67h-15.81c-2.38,0-4.32,1.94-4.32,4.32c0,2.38,1.94,4.32,4.32,4.32
		h13.66C384.21,869.69,389,872.47,391.57,876.96z"/>
	<path class="st4" d="M444.34,879.57l-0.8,2.48c-1.54,4.75-4.49,8.85-8.54,11.83c-4.13,3.05-9.02,4.66-14.16,4.66
		c-5.76,0-11.33-2.08-15.67-5.86c-4.3-3.75-7.12-8.9-7.94-14.5c-0.17-1.15-0.26-2.32-0.26-3.5c0-1.13,0.08-2.27,0.24-3.36
		c0.79-5.64,3.6-10.83,7.91-14.6c4.35-3.81,9.93-5.91,15.72-5.91c5.28,0,10.28,1.69,14.47,4.88c4.05,3.09,7.05,7.48,8.46,12.34
		l0.7,2.42h-10.47l-0.49-1.15c-2.17-5.1-7.14-8.39-12.67-8.39c-6.53,0-12.2,4.64-13.49,11.04c-0.18,0.89-0.27,1.8-0.27,2.72
		c0,0.95,0.1,1.9,0.29,2.83c1.33,6.33,7,10.93,13.47,10.93c5.25,0,10.11-3.06,12.4-7.79l0.52-1.07H444.34z"/>
	<path class="st4" d="M492.61,850.96v10.1h-42.51v-8.21l0-1.89H492.61z M460.21,888.43h32.4v10.1h-42.51v-8.21l0-1.89v-20.38
		l10.1,0.06h28.16v10.1h-28.16V888.43z"/>
	<path class="st4" d="M538.33,850.88v47.65h-2.42l-7.13-7.13l-11.98-11.97l-6.92-6.92l-10.1-10.1v-6.02l0-4.54v-1.22h2.51
		l25.93,25.93v-25.67H538.33z M499.79,872.37l10.1,10.1v16h-10.1V872.37z"/>
	<path class="st4" d="M586.12,876.96c1.24,2.17,1.9,4.64,1.9,7.15c0,2.51-0.66,4.99-1.9,7.16c-2.57,4.48-7.37,7.27-12.53,7.27
		h-14.31c-6.34,0-11.67-4.28-13.28-10.1c-0.32-1.17-0.49-2.4-0.49-3.67h9.89c0,1.7,1.1,3.15,2.62,3.67h15.57
		c2.38,0,4.32-1.94,4.32-4.32s-1.94-4.32-4.32-4.32h-13.66c-4.04,0-7.86-1.71-10.56-4.6c-0.75-0.8-1.41-1.69-1.97-2.67
		c-1.24-2.17-1.89-4.64-1.89-7.15c0-2.51,0.65-4.99,1.89-7.16c2.57-4.48,7.37-7.27,12.53-7.27h14.56c6.34,0,11.67,4.28,13.28,10.1
		c0.32,1.17,0.49,2.4,0.49,3.67h-9.89c0-1.7-1.1-3.15-2.62-3.67h-15.81c-2.38,0-4.32,1.94-4.32,4.32c0,2.38,1.94,4.32,4.32,4.32
		h13.66C578.75,869.69,583.55,872.47,586.12,876.96z"/>
	<path class="st4" d="M605.58,850.87v47.66h-10.1v-47.66H605.58z"/>
	<path class="st4" d="M660.16,874.83c0,13.07-10.63,23.7-23.7,23.7c-13.07,0-23.7-10.63-23.7-23.7c0-13.07,10.63-23.7,23.7-23.7
		C649.52,851.13,660.16,861.76,660.16,874.83z M636.46,861.02c-7.62,0-13.81,6.2-13.81,13.81s6.19,13.81,13.81,13.81
		c7.61,0,13.81-6.2,13.81-13.81S644.07,861.02,636.46,861.02z"/>
	<path class="st4" d="M705.95,850.88v47.65h-2.42l-7.13-7.13l-11.98-11.97l-6.92-6.92l-10.1-10.1v-6.02l0-4.54v-1.22h2.51
		l25.93,25.93v-25.67H705.95z M667.4,872.37l10.1,10.1v16h-10.1V872.37z"/>
</g>
</svg>
